<svg xmlns="http://www.w3.org/2000/svg" viewBox="0 0 64 64" fill="none">
  <!-- Face -->
  <circle cx="32" cy="32" r="28" fill="#D4A574"/>
  
  <!-- Hair (short, neat) -->
  <path d="M12 28 C12 16, 20 8, 32 8 C44 8, 52 16, 52 28 L52 32 C52 32, 12 32, 12 32 Z" fill="#3D2817"/>
  
  <!-- Ears -->
  <ellipse cx="10" cy="32" rx="4" ry="6" fill="#C9965A"/>
  <ellipse cx="54" cy="32" rx="4" ry="6" fill="#C9965A"/>
  
  <!-- Eyes -->
  <circle cx="23" cy="28" r="2.5" fill="#2B1810"/>
  <circle cx="41" cy="28" r="2.5" fill="#2B1810"/>
  
  <!-- Mustache (prominent, well-groomed) -->
  <path d="M20 36 Q26 34, 32 34 Q38 34, 44 36 Q40 38, 36 38 Q34 38, 32 37.5 Q30 38, 28 38 Q24 38, 20 36 Z" fill="#3D2817"/>
  
  <!-- Beard (neat, full) -->
  <path d="M18 38 Q18 50, 32 52 Q46 50, 46 38 L44 36 Q40 42, 32 42 Q24 42, 20 36 Z" fill="#3D2817"/>
  
  <!-- Apron strings (subtle detail) -->
  <line x1="32" y1="56" x2="32" y2="60" stroke="#8B4513" stroke-width="1.5"/>
</svg>